<svg width="222" height="204" viewBox="0 0 222 204" fill="none" xmlns="http://www.w3.org/2000/svg">
<path d="M128.044 115.645C126.237 116.048 124.478 116.797 122.875 117.844C118.698 120.504 116.268 124.304 117.448 126.33C118.629 128.356 122.972 127.841 127.149 125.181C128.773 124.171 130.217 122.88 131.39 121.388C131.934 120.667 132.032 119.768 131.639 119.096L130.105 116.464C129.715 115.79 128.906 115.469 128.044 115.645Z" fill="#D5D6DB"/>
<path d="M117.554 79.7397C116.244 80.0326 114.968 80.5758 113.805 81.3349C110.777 83.2634 109.015 86.0185 109.87 87.4864C110.725 88.9544 113.875 88.5804 116.903 86.6521C118.081 85.9196 119.127 84.9832 119.978 83.9011C120.372 83.3785 120.443 82.7274 120.158 82.2401L119.048 80.3343C118.765 79.8455 118.179 79.6122 117.554 79.7397Z" fill="#D5D6DB"/>
<path d="M100.51 81.2338C100.218 81.2011 99.907 81.2786 99.6373 81.4508L92.5247 85.9811C91.9298 86.3589 91.6919 87.087 91.9938 87.6077C92.0629 87.727 92.1574 87.829 92.2721 87.9075L109.809 100.007L133.526 84.9005L100.51 81.2338Z" fill="#029BC5"/>
<path d="M175.499 79.552L110.949 120.18L72.7568 135.365L53.2783 139.227L51.1343 135.582L158.73 69.1642C161.937 67.1763 165.509 65.9572 169.086 65.6306C170.652 65.4959 172.199 65.549 173.691 65.788C175.013 65.9895 176.268 66.3773 177.417 66.9399C178.699 67.5773 181.14 67.6522 181.93 68.9211C181.933 68.9191 183.8 74.7433 175.499 79.552Z" fill="#E1E6E9"/>
<path d="M111.798 114.785L83.8813 159.313C83.5327 159.938 83.7399 160.639 84.3438 160.878C84.7143 161.025 85.1678 160.967 85.5488 160.725L92.6563 156.218C94.0234 155.35 95.2337 154.248 96.2126 152.98L150.358 89.3057L111.798 114.785Z" fill="#029BC5"/>
<path d="M41.3304 113.302C40.8645 113.142 40.3102 113.225 39.8423 113.522L33.9677 117.262C33.1672 117.771 32.8485 118.75 33.2555 119.45C33.333 119.583 33.4337 119.7 33.5545 119.796L50.0201 132.995L67.3255 122.192L41.3304 113.302Z" fill="#029BC5"/>
<path d="M55.5337 135.365L46.6756 147.776C46.5457 147.955 46.5763 148.179 46.7439 148.277C46.8648 148.347 47.0297 148.334 47.1638 148.245L52.6544 144.766C52.697 144.739 52.7357 144.706 52.7676 144.667L65.7114 128.924L55.5337 135.365Z" fill="#029BC5"/>
<path d="M172.634 66.3185C171.098 66.0707 169.505 66.017 167.892 66.1579C166.322 68.354 165.318 70.8214 164.982 73.3141C164.958 73.8148 165.361 74.1755 165.884 74.1198C166.046 74.1022 166.208 74.0452 166.353 73.9538L176.471 67.514C175.288 66.9296 173.996 66.5271 172.634 66.3185Z" fill="#029BC5"/>
<path d="M150.582 78.1611L157.187 73.9927L163.343 84.4636L156.738 88.632L150.582 78.1611Z" fill="#D5D6DB"/>
<path d="M146.424 82.3062C145.628 82.81 145.311 83.7793 145.715 84.4709L146.37 85.5914C146.801 86.2654 147.784 86.3846 148.566 85.8574C149.311 85.3553 149.61 84.4421 149.251 83.7674L148.596 82.6469C148.192 81.9558 147.22 81.8032 146.424 82.3062Z" fill="#3A556A"/>
<path d="M140.486 85.9927C139.69 86.4965 139.373 87.4658 139.777 88.1574L140.432 89.2779C140.863 89.9519 141.846 90.0711 142.628 89.5439C143.373 89.0418 143.672 88.1286 143.313 87.4539L142.658 86.3334C142.254 85.6426 141.282 85.4899 140.486 85.9927Z" fill="#3A556A"/>
<path d="M134.546 89.6842C133.751 90.1887 133.434 91.1568 133.838 91.8478L134.493 92.9683C134.924 93.6423 135.908 93.7614 136.69 93.2343C137.434 92.7322 137.734 91.819 137.375 91.1443L136.72 90.0238C136.315 89.3322 135.342 89.1802 134.546 89.6842Z" fill="#3A556A"/>
<path d="M128.608 93.3698C127.813 93.8743 127.496 94.8424 127.9 95.5334L128.555 96.6539C128.986 97.3279 129.97 97.4471 130.752 96.9199C131.496 96.4178 131.796 95.5046 131.437 94.8299L130.782 93.7094C130.377 93.018 129.404 92.8659 128.608 93.3698Z" fill="#3A556A"/>
<path d="M122.67 97.0588C121.875 97.5635 121.558 98.5321 121.962 99.2234L122.618 100.344C123.022 101.035 123.994 101.187 124.79 100.684C125.586 100.18 125.903 99.2116 125.499 98.5206L124.844 97.3997C124.44 96.708 123.468 96.555 122.672 97.0578C122.671 97.0582 122.671 97.0584 122.67 97.0588Z" fill="#3A556A"/>
<path d="M116.732 100.744C115.937 101.249 115.62 102.218 116.024 102.909L116.68 104.03C117.084 104.721 118.056 104.873 118.852 104.369C119.648 103.866 119.965 102.897 119.561 102.206L118.906 101.085C118.503 100.394 117.53 100.241 116.734 100.743C116.733 100.744 116.733 100.744 116.732 100.744Z" fill="#3A556A"/>
<path d="M110.794 104.435C109.998 104.94 109.681 105.908 110.086 106.599L110.741 107.72C111.146 108.411 112.119 108.561 112.914 108.057C113.707 107.553 114.024 106.587 113.622 105.897L112.967 104.776C112.563 104.084 111.59 103.932 110.794 104.435Z" fill="#3A556A"/>
<path d="M104.855 108.121C104.06 108.626 103.743 109.595 104.147 110.286L104.803 111.407C105.208 112.097 106.181 112.248 106.976 111.743C107.769 111.24 108.086 110.274 107.684 109.583L107.028 108.462C106.624 107.771 105.652 107.618 104.855 108.121Z" fill="#3A556A"/>
<path d="M98.9174 111.809C98.1219 112.314 97.8049 113.282 98.2092 113.973L98.8646 115.094C99.2697 115.785 100.243 115.935 101.038 115.431C101.831 114.927 102.148 113.961 101.746 113.271L101.09 112.15C100.686 111.459 99.7134 111.306 98.9174 111.809Z" fill="#3A556A"/>
<path d="M92.9773 115.499C92.1816 116.003 91.8642 116.971 92.2682 117.662L92.2691 117.664L92.9246 118.785C93.3296 119.475 94.3027 119.626 95.0975 119.121C95.891 118.618 96.2078 117.651 95.8056 116.961L95.1501 115.84C94.7462 115.149 93.7737 114.996 92.9773 115.499Z" fill="#3A556A"/>
<path d="M87.0407 119.185C86.245 119.688 85.9275 120.657 86.3316 121.348L86.3325 121.349L86.9879 122.47C87.393 123.161 88.3661 123.311 89.1609 122.807C89.9544 122.303 90.2712 121.337 89.869 120.647L89.2135 119.526C88.8093 118.835 87.8367 118.682 87.0407 119.185Z" fill="#3A556A"/>
</svg>
